# xmcd CD database file
#
# Track frame offsets:
#	150
#	20852
#	40827
#	56539
#	86505
#
# Disc length: 1576 seconds
#
# Revision: 0
# Processed by: cddbd v1.5PL3 Copyright (c) Steve Scherf et al.
# Submitted via: CDex 1.50
#
DISCID=39062605
DTITLE=flex life - amefrica
DYEAR=2003
DGENRE=JPop
TTITLE0=amefrica
TTITLE1=shine your light 〜裏庭の唄〜
TTITLE2=漂泊
TTITLE3=amefrica(雨のバルセロナリミックス)
TTITLE4=Data
EXTD=YEAR: 2003
EXTT0=
EXTT1=
EXTT2=
EXTT3=
EXTT4=
PLAYORDER=
